<svg xmlns="http://www.w3.org/2000/svg" width="24" height="227"><svg width="20" height="22"><g opacity=".2" fill="none" fill-rule="evenodd"><path d="M5.812 2.361C3.992 3.348 2.89 3.716 1 3.727c.018 5.875 1.724 10.374 4.524 13.597a14.794 14.794 0 0 0 3.222 2.795c.352.223.676.407.965.552.133.068.232.113.29.139a10.808 10.808 0 0 0 1.246-.681 14.631 14.631 0 0 0 3.23-2.789C17.276 14.127 18.983 9.624 19 3.727c-1.887-.011-2.989-.381-4.817-1.374l-.529-.286C12.251 1.315 11.295 1 10 1s-2.251.316-3.645 1.066l-.543.295z" stroke="#000" stroke-width="2"/><path d="M10 5.455a2.728 2.728 0 0 0-2.727 2.727c0 1.065.625 2.035 1.594 2.475l-.685 4.798h3.636l-.685-4.798a2.721 2.721 0 0 0 1.594-2.475A2.728 2.728 0 0 0 10 5.455z" fill="#080808"/></g></svg><svg width="22" height="20" y="22"><g opacity=".2" fill="none" fill-rule="evenodd"><path d="M1.5 19h13v-6h6V2a1 1 0 0 0-1-1h-17a1 1 0 0 0-1 1v17z" stroke="#000" stroke-width="2"/><path fill="#000" d="M7 12h2v8H7zM4.5 4h6v2h-6zm0 4h13v2h-13z"/></g></svg><svg xmlns:xlink="http://www.w3.org/1999/xlink" width="24" height="26" y="42"><defs><path id="a" d="M0 0h30v30H0z"/></defs><g transform="translate(-3 -2)" fill="none" fill-rule="evenodd"><mask id="b" fill="#fff"><use xlink:href="#a"/></mask><g opacity=".2" mask="url(#b)"><path d="M14.988 3.912l-2.744 2.647-.482-.067-3.29-.458-.654 3.733-.43.23L4.44 11.57 6.106 15l-.213.437-1.453 2.992 3.378 1.804.084.48.57 3.253 3.772-.525.35.338 2.394 2.309 2.745-2.647.481.067 3.29.458.654-3.733.43-.23 2.948-1.574L23.871 15l.212-.437 1.454-2.992-3.379-1.804-.084-.48-.57-3.253-3.771.525-.35-.338-2.395-2.309z" stroke="#0E0E0E" stroke-width="2"/><path fill="#000" d="M13 9h2v12h-2z"/><path d="M14 10v5h2.5a2.5 2.5 0 0 0 0-5H14z" stroke="#000" stroke-width="2"/><path fill="#000" d="M11 14h2v2h-2zm0 3h6v2h-6z"/></g></g></svg><svg xmlns:xlink="http://www.w3.org/1999/xlink" width="24" height="24" y="68"><defs><path id="c" d="M0 0h30v30H0z"/></defs><g transform="translate(-3 -3)" fill="none" fill-rule="evenodd"><mask id="d" fill="#fff"><use xlink:href="#c"/></mask><g opacity=".2" mask="url(#d)" stroke="#000" stroke-width="2"><path d="M15 26c6.075 0 11-4.925 11-11S21.075 4 15 4 4 8.925 4 15s4.925 11 11 11z" stroke-dasharray="2.5,2.799999952316284"/><path d="M15 26c6.075 0 11-4.925 11-11S21.075 4 15 4"/><path d="M15 10v8" stroke-linecap="square"/><path d="M11 16l4 4 4-4"/></g></g></svg><svg width="24" height="22" y="92"><g opacity=".2" fill="none" fill-rule="evenodd"><path stroke="#0E0E0E" stroke-width="2" d="M1 1h12v20H1zm12 8h10v12H13z"/><path fill="#000" d="M4 16h2v2H4zm0-4h2v2H4zm0-4h2v2H4zm0-4h2v2H4zm4 12h2v2H8zm0-4h2v2H8zm6 4h2v2h-2zm0-4h2v2h-2zm4 4h2v2h-2zm0-4h2v2h-2zM8 8h2v2H8zm0-4h2v2H8z"/></g></svg><svg xmlns:xlink="http://www.w3.org/1999/xlink" width="22" height="23" y="114"><defs><path id="e" d="M0 0h30v30H0z"/></defs><g transform="translate(-4 -3)" fill="none" fill-rule="evenodd"><mask id="f" fill="#fff"><use xlink:href="#e"/></mask><g opacity=".2" mask="url(#f)" fill="#000" fill-rule="nonzero"><path d="M8 3v1H4v22h22V4h-4V3h-2v1H10V3H8zM6 6h2v1h2V6h10v1h2V6h2v2H6V6zm0 4h18v14H6V10zm6 2v2h2v-2h-2zm4 0v2h2v-2h-2zm4 0v2h2v-2h-2zM8 16v2h2v-2H8zm4 0v2h2v-2h-2zm4 0v2h2v-2h-2zm4 0v2h2v-2h-2zM8 20v2h2v-2H8zm4 0v2h2v-2h-2zm4 0v2h2v-2h-2z"/></g></g></svg><svg width="24" height="20" y="137"><g opacity=".2"><path d="M6 6v12h16V6H6zm0-2h16a2 2 0 0 1 2 2v12a2 2 0 0 1-2 2H6a2 2 0 0 1-2-2V6a2 2 0 0 1 2-2z"/><path d="M2 14v2a2 2 0 0 1-2-2V2a2 2 0 0 1 2-2h16a2 2 0 0 1 2 2H2v12z"/></g></svg><svg width="24" height="24" y="157"><g opacity=".2" fill="none" fill-rule="evenodd"><g fill="#000"><path d="M14 20v2H2a2 2 0 0 1-2-2V2a2 2 0 0 1 2-2h14a2 2 0 0 1 2 2v9h-2V2H2v18h12z" fill-rule="nonzero"/><path d="M4 4h10v2H4zm0 4h2v2H4zm0 4h2v2H4zm0 4h2v2H4zm4-8h2v2H8zm0 4h2v2H8zm0 4h2v2H8zm4-8h2v2h-2zm0 4h2v2h-2zm0 4h2v2h-2z"/></g><path fill="#000" d="M18 13h2v11h-2z"/><path d="M19 14v4h2a2 2 0 1 0 0-4h-2z" stroke="#000" stroke-width="2"/><path fill="#000" d="M16 17h2v2h-2zm0 3h6v2h-6z"/></g></svg><svg width="22" height="24" y="181"><path d="M3 0C1.355 0 0 1.355 0 3v14c0 1.645 1.355 3 3 3h4v1c0 1.645 1.355 3 3 3h12V4h-7V0H3zm0 2h10v2h-3c-.879 0-1.668.39-2.219 1H4v2h3v7H3a2.95 2.95 0 0 0-1 .188V3c0-.566.434-1 1-1zm7 4h10v12H10a2.95 2.95 0 0 0-1 .188V7c0-.566.434-1 1-1zm1 3v2h7V9h-7zm-8 7h4v2H3c-.566 0-1-.434-1-1 0-.566.434-1 1-1zm7 4h10v2H10c-.566 0-1-.434-1-1 0-.566.434-1 1-1z" opacity=".2"/></svg><svg width="22" height="22" y="205"><g opacity=".2" fill-rule="evenodd"><path d="M6.281.281L3 3.562l-1.281-1.28L.28 3.718l2 2 .72.688.719-.687 4-4L6.28.28zM10 2v2h12V2H10zM6.281 8.281L3 11.562l-1.281-1.28L.28 11.718l2 2 .719.687.719-.687 4-4L6.28 8.28zM10 10v2h12v-2H10zm0 8v2h12v-2H10z" fill-rule="nonzero"/><path d="M4 16c1.645 0 3 1.355 3 3s-1.355 3-3 3-3-1.355-3-3 1.355-3 3-3zm0 2c-.564 0-1 .436-1 1 0 .564.436 1 1 1 .564 0 1-.436 1-1 0-.564-.436-1-1-1z"/></g></svg></svg>